<?xml version="1.0" encoding="utf-8"?>
<!-- Generator: Adobe Illustrator 25.4.1, SVG Export Plug-In . SVG Version: 6.00 Build 0)  -->
<svg version="1.1" id="Layer_1" xmlns="http://www.w3.org/2000/svg" xmlns:xlink="http://www.w3.org/1999/xlink" x="0px" y="0px"
	 viewBox="0 0 110 110" style="enable-background:new 0 0 110 110;" xml:space="preserve">
<style type="text/css">
	.st0{fill:url(#SVGID_1_);}
</style>
<g id="SvgjsG7296">
</g>
<g id="SvgjsG7297" transform="matrix(1.0091696582429097,0,0,1.0091696582429097,-7.027796613516369,1.9266427340567223)">
	<g id="SvgjsG7298" transform="matrix(1,0,0,1,0,0)">
		
			<linearGradient id="SVGID_1_" gradientUnits="userSpaceOnUse" x1="-400.4446" y1="1063.6503" x2="-400.3258" y2="1063.6503" gradientTransform="matrix(841.5842 0 0 -881.7745 337019.75 937952.3125)">
			<stop  offset="0" style="stop-color:#2D388A"/>
			<stop  offset="1" style="stop-color:#00AEEF"/>
		</linearGradient>
		<path class="st0" d="M65.5,63c-0.6,3.6-3,5.9-4.1,9.5c18.8-9.4,18.8-35.3,4.7-48.2c18.8,12.9,20,37.6,17.6,58.8
			c5.9-2.4,5.9-9.4,10.6-12.9C92,73.6,92,77.1,92,80.7c0,1.2,2.4,2.4,3.5,1.2c11.8-11.8,15.3-29.4,10.6-44.7c0,1.2,0,2.4,0,3.5
			C95.5,13.6,60.2-6.4,35.5,17.1c-5.9,5.9-8.2,12.9-8.2,20c0,5.9,2.4,11.8,7.1,16.5c3.5,3.5,8.2,3.5,10.6,7.1
			c-14.1,5.9-24.7-11.8-24.7-23.5c1.2-8.2,3.5-16.5,9.4-23.5C36.7,6.6,44.9,1.9,54.3,0.7c4.7,0,8.2,0,12.9,0
			C74.3,1.9,80.2,3,86.1,6.6c5.9,3.5,10.6,7.1,14.1,12.9c5.9,8.2,9.4,17.6,10.6,27.1c1.2,12.9-2.4,24.7-8.2,36.5
			c-2.4,4.7-7.1,8.2-10.6,11.8c-7.1,4.7-14.1,9.4-22.4,9.4c-4.7,0-9.4,1.2-14.1-1.2c-2.4-2.4-1.2-5.9-3.5-8.2
			c1.2,2.4,3.5,1.2,5.9,1.2c1.2-3.5-3.5-4.7-4.7-4.7C34.3,83,10.8,71.3,12,48.9c4.7,16.5,21.2,28.2,38.8,24.7
			c4.7-1.2,8.2-3.5,11.8-6.7C64.6,64.5,65.5,63,65.5,63z"/>
	</g>
</g>
</svg>
